<?xml version="1.0" encoding="utf-8"?>
<!-- Generator: Adobe Illustrator 16.0.4, SVG Export Plug-In . SVG Version: 6.00 Build 0)  -->
<!DOCTYPE svg PUBLIC "-//W3C//DTD SVG 1.1//EN" "http://www.w3.org/Graphics/SVG/1.1/DTD/svg11.dtd">
<svg version="1.1" id="Layer_1" xmlns:sketch="http://www.bohemiancoding.com/sketch/ns"
	 xmlns="http://www.w3.org/2000/svg" xmlns:xlink="http://www.w3.org/1999/xlink" x="0px" y="0px" width="27.36px"
	 height="27.359px" viewBox="4.091 473.51 27.36 27.359" enable-background="new 4.091 473.51 27.36 27.359" xml:space="preserve">
<title>dress</title>
<description>Created with Sketch (http://www.bohemiancoding.com/sketch)</description>
<path fill="#C96384" d="M26.592,494.042c-0.471,3.283-2.523,2.788-4.254-0.105c-0.984-1.503-1.749-2.678-2.354-3.604l0.777,3.506
	c0.396,1.782,0.38,3.671-0.206,3.458l-2.654-0.965c-0.585-0.213-0.754-2.17-0.488-3.712l0.737-4.278
	c-0.297,0.062-0.614,0.046-0.921-0.065c-0.308-0.111-0.56-0.304-0.749-0.543l-2.186,3.752c-0.788,1.352-2.173,2.742-2.76,2.529
	l-2.653-0.967c-0.586-0.213,0.614-1.671,2.065-2.781l2.847-2.186c-1.057,0.319-2.4,0.729-4.12,1.247
	c-3.185,1.104-5.075,0.164-3.324-2.654c1.292-2.188,2.152-4.439,2.645-7.086c0.583-3.483,2.692-3.458,4.427-0.557
	c1.996,2.976,3.111,4.637,3.778,5.632c0.41-0.219,0.909-0.273,1.381-0.103c0.472,0.173,0.818,0.535,0.992,0.967
	c1.15-0.334,3.074-0.889,6.514-1.887c3.194-1.107,4.827,0.23,3.032,3.271C27.797,489.257,27.009,491.534,26.592,494.042z"/>
</svg>
