<?xml version="1.0" encoding="utf-8"?>
<!-- Generator: Adobe Illustrator 16.0.4, SVG Export Plug-In . SVG Version: 6.00 Build 0)  -->
<!DOCTYPE svg PUBLIC "-//W3C//DTD SVG 1.1//EN" "http://www.w3.org/Graphics/SVG/1.1/DTD/svg11.dtd">
<svg version="1.1" id="Layer_1" xmlns:sketch="http://www.bohemiancoding.com/sketch/ns"
	 xmlns="http://www.w3.org/2000/svg" xmlns:xlink="http://www.w3.org/1999/xlink" x="0px" y="0px" width="27.36px"
	 height="27.359px" viewBox="4.091 473.51 27.36 27.359" enable-background="new 4.091 473.51 27.36 27.359" xml:space="preserve">
<title>dress</title>
<description>Created with Sketch (http://www.bohemiancoding.com/sketch)</description>
<path fill="#C96384" d="M23.152,487.222l-4.084,11.22c-0.176,0.484-0.717,0.738-1.203,0.561l-8.319-3.027
	c-0.487-0.178-0.739-0.718-0.562-1.205l4.084-11.218c0.642-1.766,2.934-1.787,2.934-1.787l0.734-2.017l1.009,0.366l0.183-0.503
	l0.503,0.183c1.262-3.467,3.005-4.329,3.005-4.329l0.091-0.253l0.504,0.183l-0.093,0.253c0,0,0.78,1.781-0.482,5.248l0.504,0.184
	l-0.183,0.504l1.008,0.367l-0.734,2.017C22.052,483.967,23.778,485.499,23.152,487.222z"/>
</svg>
