<?xml version="1.0" encoding="utf-8"?>
<!-- Generator: Adobe Illustrator 16.0.4, SVG Export Plug-In . SVG Version: 6.00 Build 0)  -->
<!DOCTYPE svg PUBLIC "-//W3C//DTD SVG 1.1//EN" "http://www.w3.org/Graphics/SVG/1.1/DTD/svg11.dtd">
<svg version="1.1" id="Layer_1" xmlns:sketch="http://www.bohemiancoding.com/sketch/ns"
	 xmlns="http://www.w3.org/2000/svg" xmlns:xlink="http://www.w3.org/1999/xlink" x="0px" y="0px" width="27.36px"
	 height="27.359px" viewBox="4.091 473.51 27.36 27.359" enable-background="new 4.091 473.51 27.36 27.359" xml:space="preserve">
<title>dress</title>
<description>Created with Sketch (http://www.bohemiancoding.com/sketch)</description>
<path fill="#C96384" d="M28.592,483.451l-0.355,0.975c-0.143,0.392-0.527,0.561-0.912,0.595c-3.056,0.27-6.112,0.545-9.166,0.811
	c-0.817,0.043-1.589,0.521-1.879,1.318l-0.784,2.163l1.08,0.389l0.773-2.132c0.146-0.4,0.544-0.562,0.93-0.594
	c3.054-0.272,6.103-0.541,9.154-0.816c0.814-0.04,1.593-0.518,1.878-1.312c0.118-0.335,0.242-0.667,0.362-0.998
	c0.306-0.848-0.144-1.797-0.991-2.103l-0.392,1.077C28.548,482.913,28.688,483.19,28.592,483.451 M27.633,479.531l-14.791-5.362
	c-0.531-0.193-1.123,0.084-1.315,0.613l-0.864,2.386c-0.192,0.53,0.085,1.123,0.614,1.315l14.791,5.363
	c0.533,0.19,1.122-0.084,1.314-0.616l0.866-2.384C28.442,480.313,28.166,479.724,27.633,479.531 M15.136,489.918
	c-0.302-0.126-0.728-0.088-0.948,0.433c-1.118,2.659-2.238,5.315-3.358,7.974c-0.24,0.567-0.133,1.245,0.711,1.549
	c0.434,0.158,0.865,0.315,1.3,0.475c0.844,0.303,1.359-0.147,1.541-0.737c0.843-2.755,1.688-5.514,2.53-8.271
	c0.167-0.541-0.135-0.843-0.448-0.94C16.022,490.258,15.567,490.092,15.136,489.918"/>
</svg>
