<?xml version="1.0" encoding="utf-8"?>
<!-- Generator: Adobe Illustrator 16.0.4, SVG Export Plug-In . SVG Version: 6.00 Build 0)  -->
<!DOCTYPE svg PUBLIC "-//W3C//DTD SVG 1.1//EN" "http://www.w3.org/Graphics/SVG/1.1/DTD/svg11.dtd">
<svg version="1.1" id="Layer_1" xmlns:sketch="http://www.bohemiancoding.com/sketch/ns"
	 xmlns="http://www.w3.org/2000/svg" xmlns:xlink="http://www.w3.org/1999/xlink" x="0px" y="0px" width="27.36px"
	 height="27.359px" viewBox="4.091 473.51 27.36 27.359" enable-background="new 4.091 473.51 27.36 27.359" xml:space="preserve">
<title>dress</title>
<description>Created with Sketch (http://www.bohemiancoding.com/sketch)</description>
<g>
	<g>
		<path fill="#C96384" d="M18.138,500.268c0.429-0.466,1.813-5.865,2.772-9.777c0.473-1.025,5.623-12.227,5.267-13.316
			c-0.372-1.143-3.021,2.062-4.085,4.336c-1.047,2.236-2.384,6.852-2.384,6.852l0.391,0.735c-1.803,3.635-4.684,9.643-4.426,10.432
			C16.045,500.669,17.458,501.008,18.138,500.268z"/>
		<path fill="#C96384" d="M16.269,484.128c1.27,0.314,2.187-0.085,2.685-1.451c1.399-3.85,1.99-7.525,1.99-7.525l-0.386-0.14
			l-2.23,6.129c-0.066,0.182-0.268,0.275-0.45,0.209c-0.182-0.065-0.276-0.268-0.209-0.451l2.229-6.128l-0.438-0.158l-2.229,6.128
			c-0.067,0.183-0.268,0.277-0.45,0.21c-0.183-0.066-0.276-0.267-0.209-0.45l2.229-6.129l-0.438-0.158l-2.229,6.129
			c-0.067,0.184-0.269,0.276-0.45,0.211c-0.183-0.068-0.277-0.269-0.209-0.451l2.229-6.128l-0.33-0.122c0,0-1.388,2.285-3.313,6.916
			c-0.457,1.097,0.104,2.561,1.583,3.158c-1.458,2.881-6.201,12.377-5.861,13.421c0.403,1.229,1.927,1.596,2.66,0.798
			C13.061,497.469,15.527,487.253,16.269,484.128z"/>
	</g>
</g>
</svg>
