<?xml version="1.0" encoding="utf-8"?>
<!-- Generator: Adobe Illustrator 16.0.4, SVG Export Plug-In . SVG Version: 6.00 Build 0)  -->
<!DOCTYPE svg PUBLIC "-//W3C//DTD SVG 1.1//EN" "http://www.w3.org/Graphics/SVG/1.1/DTD/svg11.dtd">
<svg version="1.1" id="Layer_1" xmlns:sketch="http://www.bohemiancoding.com/sketch/ns"
	 xmlns="http://www.w3.org/2000/svg" xmlns:xlink="http://www.w3.org/1999/xlink" x="0px" y="0px" width="27.36px"
	 height="27.359px" viewBox="4.091 473.51 27.36 27.359" enable-background="new 4.091 473.51 27.36 27.359" xml:space="preserve">
<title>dress</title>
<description>Created with Sketch (http://www.bohemiancoding.com/sketch)</description>
<path fill="#C96384" d="M26.041,476.441l-6.737-2.376l-2.038,0.889l-1.434,4.147l0.797,1.779l0.12,0.178l6.628,2.43l1.942-0.877
	l1.654-4.256L26.041,476.441z M19.935,493.044l-1.704-1l-3.211-1.246l-1.74-0.238l-2.148,1.079l-1.285,4.109l1.147,2.081
	l0.959,0.649l4.393,1.521l0.995-0.113l1.598-0.539l1.833-4.511L19.935,493.044z M19.16,481.5c0,0-3.013,6.214-3.565,9.391
	c-0.551,3.176,2.342,0.999,2.342,0.999s2.58-4.041,3.597-9.615"/>
</svg>
