<?xml version="1.0" encoding="utf-8"?>
<!-- Generator: Adobe Illustrator 16.0.4, SVG Export Plug-In . SVG Version: 6.00 Build 0)  -->
<!DOCTYPE svg PUBLIC "-//W3C//DTD SVG 1.1//EN" "http://www.w3.org/Graphics/SVG/1.1/DTD/svg11.dtd">
<svg version="1.1" id="Layer_1" xmlns:sketch="http://www.bohemiancoding.com/sketch/ns"
	 xmlns="http://www.w3.org/2000/svg" xmlns:xlink="http://www.w3.org/1999/xlink" x="0px" y="0px" width="27.36px"
	 height="27.359px" viewBox="4.091 473.51 27.36 27.359" enable-background="new 4.091 473.51 27.36 27.359" xml:space="preserve">
<title>dress</title>
<description>Created with Sketch (http://www.bohemiancoding.com/sketch)</description>
<path fill="#C96384" d="M17.786,488.342c1.189,0.433,2.177,0.726,2.864,0.888c0.067,0.018,0.131,0.031,0.192,0.045l0.194-0.532
	c-0.061-0.015-0.126-0.027-0.193-0.043c-0.652-0.152-1.567-0.429-2.859-0.899c-1.357-0.494-2.258-0.884-2.855-1.193
	c-0.062-0.032-0.12-0.063-0.175-0.093l-0.194,0.533c0.055,0.028,0.114,0.06,0.176,0.092
	C15.564,487.459,16.539,487.888,17.786,488.342z M20.642,489.825c-0.062-0.014-0.126-0.027-0.193-0.044
	c-0.652-0.151-1.567-0.428-2.859-0.898c-1.357-0.494-2.257-0.885-2.855-1.193c-0.061-0.033-0.12-0.063-0.175-0.094
	c-0.12-0.065-0.225-0.127-0.317-0.185l-3.534,9.71c0.459,0.345,1.552,0.95,3.305,1.589c1.656,0.603,2.841,0.849,3.452,0.899
	l3.536-9.716C20.893,489.875,20.773,489.852,20.642,489.825z M14.896,490.663l-1.74,4.78l-0.295,0.812
	c-0.055,0.15-0.219,0.228-0.369,0.173c-0.149-0.055-0.227-0.22-0.172-0.37l0.295-0.812l1.74-4.779l0.427-1.174
	c0.055-0.149,0.22-0.228,0.37-0.174c0.149,0.055,0.226,0.221,0.171,0.37L14.896,490.663z M22.242,482.552l2.521-6.927
	c-0.366,0.412-0.874,0.822-1.494,1.18c-1.161,0.668-2.361,0.936-3.06,0.681c-0.233-0.085-0.407-0.223-0.515-0.409
	c-0.014-0.022-0.021-0.048-0.032-0.071l-1.478,4.06c0.549,0.136,1.218,0.348,2.016,0.638
	C21.045,482.009,21.724,482.292,22.242,482.552z M21.043,488.147l1.691-4.646c-0.147-0.102-0.378-0.236-0.693-0.396
	c-0.482-0.244-1.157-0.543-2.036-0.863c-0.827-0.301-1.505-0.501-2.02-0.626c-0.465-0.113-0.795-0.164-0.979-0.172l-1.678,4.61
	c0.629,0.321,1.605,0.749,2.852,1.203C19.369,487.691,20.357,487.983,21.043,488.147z M20.195,476.787
	c0.201,0.351,1.361,0.339,2.787-0.482c0.849-0.489,1.399-1.038,1.665-1.479c0.181-0.299,0.231-0.548,0.15-0.69
	c-0.039-0.067-0.11-0.12-0.212-0.157c-0.433-0.157-1.423-0.024-2.575,0.639c-1.356,0.782-1.957,1.72-1.836,2.113
	C20.179,476.75,20.185,476.77,20.195,476.787z"/>
</svg>
