<?xml version="1.0" encoding="utf-8"?>
<!-- Generator: Adobe Illustrator 16.0.4, SVG Export Plug-In . SVG Version: 6.00 Build 0)  -->
<!DOCTYPE svg PUBLIC "-//W3C//DTD SVG 1.1//EN" "http://www.w3.org/Graphics/SVG/1.1/DTD/svg11.dtd">
<svg version="1.1" id="Layer_1" xmlns:sketch="http://www.bohemiancoding.com/sketch/ns"
	 xmlns="http://www.w3.org/2000/svg" xmlns:xlink="http://www.w3.org/1999/xlink" x="0px" y="0px" width="27.36px"
	 height="27.359px" viewBox="4.091 473.51 27.36 27.359" enable-background="new 4.091 473.51 27.36 27.359" xml:space="preserve">
<title>dress</title>
<description>Created with Sketch (http://www.bohemiancoding.com/sketch)</description>
<path fill="#C96384" d="M19.629,481.249c0.024-0.065,0.007-0.16-0.035-0.21c0,0-1.263-1.576-3.011-2.875
	c-1.747-1.3-3.566-2.013-3.566-2.013c-0.063-0.022-0.133,0.009-0.156,0.07l-4.271,11.732c-0.023,0.065,0.008,0.141,0.069,0.169
	c0,0,1.857,0.859,4.708,3.166c0.761,0.618,1.868,1.705,1.868,1.705c0.048,0.046,0.105,0.032,0.128-0.03L19.629,481.249z
	 M16.286,493.299c-0.023,0.062,0.013,0.109,0.079,0.105c0,0,1.546-0.121,2.526-0.105c3.667,0.066,5.643,0.602,5.643,0.602
	c0.065,0.018,0.137-0.02,0.161-0.085l4.27-11.732c0.022-0.062-0.011-0.131-0.074-0.154c0,0-1.853-0.62-4.025-0.75
	c-2.174-0.129-4.155,0.267-4.155,0.267c-0.065,0.012-0.138,0.073-0.162,0.139L16.286,493.299z M30.093,486.141l-3.949,10.851
	c-0.023,0.062-0.095,0.1-0.159,0.083l-1.904-0.51c-0.066-0.017-0.172-0.042-0.237-0.06c0,0-1.793-0.456-5-0.513
	c-0.404-0.008-1.093,0.012-1.093,0.012c-0.066,0.005-0.123,0.006-0.123,0.006c-0.443,0.028-0.896,0.082-1.195,0.054
	c-0.011,0.002-0.015,0.009-0.031,0.006c0,0-0.013-0.002-0.032-0.006c-0.005-0.001-0.008-0.002-0.015-0.003
	c-0.022-0.006-0.054-0.013-0.095-0.023c-0.006-0.002-0.009-0.003-0.016-0.004c-0.001-0.001-0.005-0.001-0.006-0.001
	c0,0-0.001-0.001-0.001-0.001c-0.002-0.001-0.007-0.001-0.009-0.002c-0.049-0.013-0.109-0.029-0.182-0.05
	c-0.006-0.002-0.014-0.004-0.021-0.007c-0.066-0.019-0.142-0.042-0.228-0.068c-0.026-0.008-0.053-0.017-0.082-0.026
	c-0.078-0.024-0.164-0.052-0.256-0.084c-0.035-0.011-0.066-0.021-0.103-0.034c-0.131-0.044-0.272-0.094-0.432-0.151c0,0,0,0-0.001,0
	c0,0,0,0,0-0.001c-0.16-0.058-0.299-0.11-0.428-0.161c-0.036-0.014-0.067-0.026-0.1-0.039c-0.091-0.035-0.175-0.069-0.25-0.101
	c-0.028-0.011-0.054-0.021-0.08-0.032c-0.083-0.035-0.156-0.065-0.218-0.094c-0.007-0.002-0.015-0.006-0.021-0.009
	c-0.068-0.031-0.125-0.057-0.17-0.078c-0.003-0.001-0.006-0.004-0.009-0.005c0,0-0.001,0-0.002,0
	c-0.001-0.001-0.004-0.003-0.005-0.003c-0.006-0.004-0.009-0.005-0.014-0.008c-0.039-0.018-0.067-0.032-0.088-0.043
	c-0.006-0.004-0.008-0.005-0.013-0.007c-0.018-0.01-0.029-0.016-0.029-0.016c-0.014-0.009-0.012-0.017-0.019-0.025
	c-0.248-0.17-0.561-0.503-0.881-0.809c0,0-0.042-0.037-0.09-0.084c0,0-0.516-0.458-0.83-0.712c-2.494-2.017-4.16-2.821-4.16-2.821
	c-0.062-0.028-0.16-0.076-0.221-0.106l-1.786-0.834c-0.06-0.027-0.092-0.103-0.069-0.165l3.949-10.851
	c0.022-0.062,0.089-0.142,0.145-0.179c0,0,0.284-0.174,0.768-0.401c0.484-0.225,0.896-0.37,0.896-0.37
	c0.062-0.022,0.097,0.01,0.073,0.074l-3.6,9.89c-0.023,0.065-0.062,0.169-0.084,0.23l-0.221,0.612
	c-0.024,0.065,0.008,0.141,0.068,0.169l0.591,0.275c0.061,0.028,0.161,0.074,0.222,0.103c0,0,1.803,0.854,4.505,3.043
	c0.631,0.509,1.705,1.545,1.705,1.545c0.417,0.396,0.59,0.626,0.854,0.946c0.409-0.075,0.688-0.141,1.262-0.176
	c0,0,1.49-0.104,2.3-0.088c3.478,0.06,5.407,0.564,5.407,0.564c0.065,0.018,0.17,0.047,0.236,0.064l0.63,0.169
	c0.064,0.018,0.136-0.02,0.16-0.085l0.224-0.611c0.022-0.062,0.06-0.166,0.084-0.23l3.6-9.89c0.023-0.065,0.07-0.067,0.104-0.011
	c0,0,0.223,0.376,0.449,0.86c0.224,0.484,0.33,0.801,0.33,0.801C30.116,485.975,30.115,486.079,30.093,486.141z"/>
</svg>
